<svg xmlns="http://www.w3.org/2000/svg" viewBox="0 0 512 512" id="cardiogram">
    <rect width="497" height="444" x="7.5" y="34" fill="#676e87" rx="30"></rect>
    <path fill="#595f74" d="M474.5 34h-30a30 30 0 0 1 30 30v384a30 30 0 0 1-30 30h30a30 30 0 0 0 30-30V64a30 30 0 0 0-30-30Z"></path>
    <rect width="407" height="275" x="52.5" y="79" fill="#fff" rx="5"></rect>
    <circle cx="444.5" cy="418" r="15" fill="#fff"></circle>
    <path fill="#eee" d="M444.5 403a14.938 14.938 0 0 0-5.048.89 14.98 14.98 0 0 1 0 28.22A14.994 14.994 0 1 0 444.5 403Z"></path>
    <circle cx="67.5" cy="418" r="15" fill="#fff"></circle>
    <rect width="64" height="34" x="318" y="399" fill="#ffe966" rx="6"></rect>
    <path fill="#ffe236" d="M376 399h-15a6 6 0 0 1 6 6v22a6 6 0 0 1-6 6h15a6 6 0 0 0 6-6v-22a6 6 0 0 0-6-6Z"></path>
    <rect width="64" height="34" x="224" y="399" fill="#63ea86" rx="6"></rect>
    <path fill="#3ce568" d="M282 399h-15a6 6 0 0 1 6 6v22a6 6 0 0 1-6 6h15a6 6 0 0 0 6-6v-22a6 6 0 0 0-6-6Z"></path>
    <rect width="64" height="34" x="130" y="399" fill="#f66" rx="6"></rect>
    <path fill="#ff4e4e" d="M188 399h-15a6 6 0 0 1 6 6v22a6 6 0 0 1-6 6h15a6 6 0 0 0 6-6v-22a6 6 0 0 0-6-6Z"></path>
    <path fill="#4eb7ff" d="M459.5 253.7v15h-27.43a11.526 11.526 0 0 1-10.46-6.74l-15.35-33.74-18.22 34.36a11.45 11.45 0 0 1-10.16 6.12h-12.65l-18.81 37.96a11.504 11.504 0 0 1-21.41-2.12l-33.14-122.99L264.02 261a11.522 11.522 0 0 1-10.86 7.7h-24.54l-20.12 39.92a11.387 11.387 0 0 1-10.25 6.33c-.1 0-.2 0-.3-.01a11.398 11.398 0 0 1-10.23-6.84l-38.31-86.57-13.89 39.49a11.528 11.528 0 0 1-10.85 7.68H52.5v-15h69.69l16-45.47a11.495 11.495 0 0 1 21.36-.84l38.89 87.87 17.75-35.24a11.455 11.455 0 0 1 10.27-6.32h24.22l30.77-87.79a11.504 11.504 0 0 1 21.96.82l33.67 124.98 15.67-31.62a11.425 11.425 0 0 1 10.3-6.39h12.73l20.56-38.8a11.498 11.498 0 0 1 20.63.63l17.36 38.17Z"></path>
    <path fill="#f66" d="m121.38 117.964-2.767-2.768a21.154 21.154 0 0 0-29.917 0 21.154 21.154 0 0 0 0 29.917l4.377 4.376 27.235 27.235a3.792 3.792 0 0 0 5.363 0l27.235-27.235 4.377-4.376a21.154 21.154 0 0 0 0-29.917 21.154 21.154 0 0 0-29.917 0l-2.767 2.768a2.276 2.276 0 0 1-3.219 0Z"></path>
    <path fill="#ff4e4e" d="M157.283 115.196a21.144 21.144 0 0 0-22.459-4.808 21.048 21.048 0 0 1 7.459 4.808 21.154 21.154 0 0 1 0 29.917l-26.794 26.793 4.819 4.818a3.792 3.792 0 0 0 5.363 0l31.612-31.611a21.154 21.154 0 0 0 0-29.917Z"></path>
    <path fill="#eee" d="M67.5 403a14.938 14.938 0 0 0-5.048.89 14.98 14.98 0 0 1 0 28.22A14.994 14.994 0 1 0 67.5 403Z"></path>
</svg>
