<svg xmlns="http://www.w3.org/2000/svg" enable-background="new 0 0 100 100" viewBox="0 0 100 100" id="ct-scan">
  <path fill="#5eeddb" d="M47.597,62.487l-0.071,0.187c-2.669,7.041-7.368,12.011-12.89,13.637l-1.93,0.568h29.527
			l6.116-14.393H47.597z"></path>
  <path fill="#ffc8bb" d="M36.272,45.302c-3.017,0-5.472,2.455-5.472,5.472c0,3.016,2.455,5.469,5.472,5.469
			c3.016,0,5.469-2.454,5.469-5.469C41.742,47.757,39.288,45.302,36.272,45.302z"></path>
  <path fill="#ffc8bb" d="M85.665,46.2c-0.548-0.246-1.199-0.144-1.642,0.253l-1.627,1.445
			c-0.618,0.551-1.416,0.854-2.249,0.854h-2.649l-5.044-7.036c-0.519-0.723-1.289-1.191-2.17-1.319
			c-0.883-0.124-1.761,0.11-2.455,0.656l-6.887,5.382l-0.118,0.09L48.85,46.552l1.232-0.003l7.196-5.95
			c0.614-0.507,0.967-1.255,0.967-2.051c0-0.628-0.211-1.214-0.609-1.693c-0.506-0.612-1.254-0.963-2.052-0.963
			c-0.617,0-1.218,0.216-1.693,0.607l-9.567,7.818c-1.291,1.055-2.359,2.412-3.088,3.924l-0.059,0.123l0.057,0.124
			c0.336,0.727,0.507,1.496,0.507,2.285c0,1.363-0.511,2.671-1.438,3.684L40.2,54.572l0.037,0.15
			c0.512,2.111,2.389,3.586,4.565,3.586h0.03l16.256-0.003c0.774,0,1.503-0.302,2.055-0.851c0.095-0.095,0.184-0.199,0.26-0.305
			c0.386-0.506,0.59-1.112,0.59-1.753c0-0.393-0.078-0.767-0.22-1.109l0.056,0.129h20.794c1.073,0,1.946-0.872,1.946-1.943v-4.878
			C86.57,46.985,86.223,46.45,85.665,46.2z"></path>
  <path fill="#ef83ff" d="M77.498,48.753l-5.044-7.036c-0.519-0.723-1.289-1.191-2.17-1.319
			c-0.883-0.124-1.761,0.11-2.455,0.656l-6.887,5.382l-0.118,0.09h-0.362v5.965h0.626c1.156,0,2.202,0.687,2.666,1.751l0.076,0.174
			h16.497v-5.664H77.498z"></path>
  <path fill="#3cd7c2" d="M88.234,50.243H86.57v2.23c0,1.071-0.873,1.943-1.946,1.943h-20.78l0.078,0.352
			c0.048,0.218,0.071,0.423,0.071,0.628c0,0.775-0.303,1.505-0.852,2.057c-0.549,0.549-1.279,0.852-2.054,0.852l-16.286,0.003
			c-2.027,0-3.87-1.348-4.483-3.278l-0.133-0.421l-0.333,0.289c-0.998,0.867-2.27,1.344-3.58,1.344
			c-3.018,0-5.472-2.454-5.472-5.469c0-0.042,0.003-0.083,0.006-0.124c0.002-0.035,0.005-0.071,0.006-0.107l0.01-0.3H26.95
			l0.007,0.297c0.127,5.298,2.136,9.969,5.117,11.9l0.072,0.047h56.088c3.097,0,5.617-2.52,5.617-5.617v-1.009
			C93.852,52.763,91.332,50.243,88.234,50.243z"></path>
  <path fill="#c5f9f2" d="M27.242,50.234L27.239,50c0-4.889,1.613-9.308,4.221-11.592l0.058,0.052
			c1.627,1.458,2.901,3.843,3.587,6.718l0.118,0.494l0.506-0.052c0.189-0.019,0.367-0.029,0.544-0.029
			c1.799,0,3.442,0.92,4.396,2.46l0.534,0.862l0.472-0.897c0.703-1.334,1.682-2.535,2.832-3.472l4.451-3.638l-0.095-0.361
			C46.065,29.949,38.774,22.83,30.722,22.83c-10.666,0-19.343,12.188-19.343,27.17c0,14.97,8.671,27.158,19.328,27.17h0.027
			c7.089-0.006,13.596-5.441,16.983-14.183l0.306-0.79H32.257C29.27,60.255,27.302,55.56,27.242,50.234z"></path>
  <path fill="#5eeddb" d="M26.822,76.312C18.042,73.72,11.669,62.654,11.669,50c0-10.583,4.44-20.221,11.311-24.556
			l0.848-0.535h-7.923c-4.575,0-8.297,4.015-8.297,8.949V76.88h21.138L26.822,76.312z"></path>
  <path d="M88.234,49.373h-0.795v-1.777c0-0.958-0.543-1.797-1.418-2.19c-0.874-0.392-1.862-0.24-2.579,0.397l-1.625,1.445
		c-0.461,0.41-1.054,0.636-1.671,0.636l-2.202,0l-4.786-6.673c-0.658-0.918-1.635-1.512-2.752-1.672
		c-1.117-0.161-2.224,0.134-3.116,0.83l-6.768,5.289l-8.017,0.017l5.327-4.403c0.815-0.673,1.283-1.666,1.283-2.723
		c0-0.818-0.287-1.616-0.809-2.246c-1.239-1.501-3.469-1.713-4.968-0.475l-4.232,3.458C46.036,29.041,38.772,22.25,30.722,22.25
		c-2.476,0-4.848,0.634-7.037,1.789h-7.78c-5.055,0-9.167,4.405-9.167,9.819V76.01h-0.59c-0.48,0-0.87,0.39-0.87,0.87
		c0,0.48,0.39,0.87,0.87,0.87h1.458c0.001,0,0.002,0,0.003,0c0.001,0,0.002,0,0.003,0h23.094c0.005,0,0.011,0,0.016,0
		c0.004,0,0.008,0,0.012,0h31.493c0.002,0,0.004,0.001,0.006,0.001c0.003,0,0.005-0.001,0.008-0.001H74.64
		c0.48,0,0.87-0.39,0.87-0.87c0-0.48-0.39-0.87-0.87-0.87H63.548l5.377-12.652h19.31c3.577,0,6.487-2.91,6.487-6.487v-1.009
		C94.722,52.284,91.812,49.373,88.234,49.373z M54.445,37.17c0.762-0.629,1.893-0.522,2.522,0.239
		c0.268,0.324,0.41,0.718,0.41,1.138c0,0.536-0.237,1.04-0.651,1.382l-6.958,5.751l-0.921,0.002
		c-0.481,0.001-0.869,0.391-0.868,0.872c0.001,0.48,0.39,0.868,0.87,0.868c0.001,0,0.001,0,0.002,0l11.975-0.026
		c0.194,0,0.381-0.065,0.534-0.185l7.003-5.472c0.514-0.402,1.153-0.572,1.797-0.479c0.643,0.093,1.207,0.435,1.586,0.964
		l4.059,5.659l-9.084-0.001c-0.48,0-0.87,0.39-0.87,0.87s0.389,0.87,0.87,0.87l13.427,0.001c1.044,0,2.048-0.382,2.827-1.076
		l1.625-1.445c0.288-0.256,0.592-0.162,0.71-0.109c0.117,0.053,0.39,0.217,0.39,0.603v4.876c0,0.592-0.482,1.074-1.074,1.074h-20.25
		c-0.649-1.148-1.878-1.925-3.288-1.925H47.58c-0.48,0-0.87,0.39-0.87,0.87s0.39,0.87,0.87,0.87h13.507
		c1.123,0,2.036,0.913,2.036,2.036c0,0.543-0.212,1.055-0.597,1.442c-0.385,0.385-0.896,0.597-1.439,0.597H45.263l-0.436,0.002
		c-0.009,0-0.018,0-0.027,0c-1.663,0-3.128-1.082-3.639-2.632c0.906-1.097,1.451-2.502,1.451-4.032c0-0.847-0.168-1.655-0.471-2.394
		c0.666-1.297,1.602-2.463,2.733-3.387l4.27-3.49c0.015-0.011,0.029-0.024,0.044-0.036L54.445,37.17z M27.829,49.373
		c0.129-4.285,1.575-8.077,3.631-10.165c1.267,1.287,2.299,3.229,2.927,5.511c-2.142,0.668-3.798,2.445-4.299,4.655H27.829z
		 M36.271,46.173c2.537,0,4.601,2.064,4.601,4.601c0,2.537-2.064,4.601-4.601,4.601s-4.601-2.064-4.601-4.601
		C31.67,48.237,33.734,46.173,36.271,46.173z M47.643,40.482l-3.87,3.163c-1.046,0.855-1.949,1.888-2.666,3.034
		c-1.164-1.372-2.899-2.246-4.836-2.246c-0.053,0-0.105,0.003-0.157,0.004c-0.683-2.591-1.821-4.775-3.279-6.31
		c0.697-0.401,1.436-0.621,2.199-0.621c0.48,0,0.87-0.39,0.87-0.87s-0.39-0.87-0.87-0.87c-5.021,0-8.954,6.252-8.954,14.234
		c0,0.078,0.003,0.155,0.004,0.234c0,0.004-0.001,0.007-0.001,0.01c0,0.005,0.001,0.009,0.001,0.014
		c0.084,7.858,3.984,13.976,8.95,13.976c0.48,0,0.87-0.39,0.87-0.87c0-0.002-0.001-0.004-0.001-0.007h10.414
		c-3.286,7.832-9.171,12.647-15.584,12.652h-0.027C20.687,75.998,12.539,64.334,12.539,50c0-14.342,8.157-26.01,18.183-26.01
		C38.167,23.99,44.915,30.595,47.643,40.482z M8.479,76.01V33.858c0-4.455,3.332-8.079,7.427-8.079h5.103
		C14.922,30.533,10.799,39.608,10.799,50c0,11.901,5.407,22.075,12.979,26.01H8.479z M61.657,76.01H37.694
		c4.415-2.282,8.162-6.708,10.501-12.652h18.839L61.657,76.01z M92.982,56.87c0,2.618-2.13,4.747-4.747,4.747h-19.88
		c-0.002,0-0.004,0-0.006,0H32.433c-2.477-1.717-4.328-5.778-4.583-10.504h2.089c0.177,3.339,2.949,6.001,6.332,6.001
		c1.302,0,2.513-0.395,3.52-1.07c0.917,1.876,2.848,3.133,5.007,3.133c0.013,0,0.026,0,0.039,0l16.25-0.002
		c1.008,0,1.956-0.393,2.671-1.108c0.713-0.716,1.105-1.664,1.105-2.67c0-0.037-0.005-0.074-0.006-0.111h19.767
		c1.552,0,2.814-1.262,2.814-2.814v-1.359h0.795c2.618,0,4.747,2.13,4.747,4.747V56.87z"></path>
</svg>
