<?xml version="1.0" encoding="UTF-8"?>
<svg width="128" height="128" viewBox="0 0 128 128" xmlns="http://www.w3.org/2000/svg">
  <!-- Outer frame -->
  <rect x="8" y="8" rx="12" ry="12" width="112" height="96" fill="#8A5A83"/>
  <rect x="14" y="14" rx="10" ry="10" width="100" height="84" fill="#E6E1E5"/>

  <!-- Screen -->
  <rect x="22" y="20" rx="6" ry="6" width="84" height="52" fill="#6FD0C2"/>

  <!-- Waveform -->
  <polyline
    points="26,46 36,46 44,36 52,56 60,40 68,30 76,56 84,44 92,46 102,46"
    fill="none"
    stroke="#6B2E5C"
    stroke-width="4"
    stroke-linecap="round"
    stroke-linejoin="round"/>

  <!-- Bottom panel -->
  <rect x="22" y="74" rx="4" ry="4" width="84" height="20" fill="#CFC9CC"/>

  <!-- Buttons -->
  <circle cx="36" cy="84" r="3" fill="#8A5A83"/>
  <circle cx="46" cy="84" r="3" fill="#8A5A83"/>
  <circle cx="56" cy="84" r="3" fill="#8A5A83"/>

  <!-- Knobs -->
  <circle cx="84" cy="84" r="6" fill="#8A5A83"/>
  <circle cx="98" cy="84" r="6" fill="#8A5A83"/>
</svg>
