<svg xmlns="http://www.w3.org/2000/svg" width="64" height="64" enable-background="new 0 0 64 64" viewBox="0 0 64 64" id="microscope">
	<path fill="#2C2E63" d="M37.76,54.43c10.14,0,18.38-8.24,18.38-18.38s-8.24-18.39-18.38-18.39h-2.79c-0.6-0.82-1.41-1.44-2.35-1.84
		l0.58-1.74c0.31-0.96-0.21-2-1.17-2.32l-0.78-0.26l1.14-3.43l1.19,0.39c0.1,0.03,0.2,0.05,0.3,0.05c0.15,0,0.3-0.03,0.44-0.1
		c0.23-0.12,0.4-0.32,0.48-0.56l1.14-3.44c0.17-0.51-0.11-1.06-0.62-1.22l-9.49-3.14c-0.51-0.17-1.06,0.1-1.23,0.61l-1.13,3.43
		c-0.17,0.51,0.11,1.06,0.61,1.23l1.19,0.39l-1.13,3.44l-0.78-0.26c-0.97-0.32-2,0.21-2.32,1.16l-5.47,16.54
		c-0.15,0.46-0.12,0.96,0.1,1.4c0.22,0.43,0.6,0.76,1.07,0.91l1.16,0.39l-1.5,4.52c-0.17,0.51,0.11,1.06,0.62,1.23l4.5,1.49
		c0.1,0.03,0.2,0.05,0.3,0.05c0.15,0,0.3-0.04,0.44-0.11c0.23-0.11,0.4-0.32,0.48-0.56l1.5-4.52l1.17,0.38
		c0.19,0.07,0.39,0.1,0.58,0.1c0.28,0,0.56-0.07,0.82-0.2c0.44-0.22,0.76-0.59,0.92-1.06l1.39-4.21c0.45,0.11,0.9,0.18,1.34,0.18
		c1.78,0,3.48-0.86,4.53-2.3h2.77c6.49,0,11.76,5.28,11.76,11.77c0,6.48-5.27,11.76-11.76,11.76H21.04v-2.58h10.27
		c0.54,0,0.97-0.44,0.97-0.97c0-0.54-0.43-0.97-0.97-0.97H8.82c-0.53,0-0.96,0.43-0.96,0.97c0,0.53,0.43,0.97,0.96,0.97H19.1v2.58
		h-3.95c-1.82,0-3.31,1.49-3.31,3.31c0,1.83,1.49,3.31,3.31,3.31h10.76v2.63h-5.64c-0.54,0-0.97,0.43-0.97,0.97v5
		c0,0.53,0.43,0.97,0.97,0.97h21.48c0.54,0,0.97-0.44,0.97-0.97v-5c0-0.54-0.43-0.97-0.97-0.97H36.1v-2.63H37.76z M26.14,2.191
		l7.65,2.53l-0.52,1.6l-7.66-2.54L26.14,2.191z M30.55,7.461l-1.14,3.43l-3.43-1.13l1.13-3.44L30.55,7.461z M21.21,34.38l-2.66-0.88
		l1.19-3.6l2.66,0.88L21.21,34.38z M25.92,29.9l-1.97-0.65c-0.01-0.01-0.01-0.01-0.02-0.01c-0.01-0.01-0.01,0-0.02-0.01l-4.47-1.47
		c0-0.01,0-0.01-0.01-0.01h-0.01l-1.97-0.66l5.4-16.33l1.58,0.53c0.01,0,0.01,0,0.02,0.01c0,0,0.01,0,0.02,0l5.24,1.73
		c0,0.01,0.01,0.01,0.01,0.01c0.01,0,0.02,0,0.02,0.01l1.58,0.52l-0.6,1.83c-0.95-0.05-1.9,0.13-2.77,0.56
		c-1.34,0.68-2.34,1.83-2.81,3.25c-0.8,2.44,0.16,5.04,2.2,6.41L25.92,29.9z M33.95,22.131c-0.64,1.91-2.72,2.96-4.64,2.33
		c-1.92-0.64-2.96-2.72-2.33-4.64c0.31-0.93,0.96-1.68,1.84-2.12c0.52-0.26,1.08-0.4,1.64-0.4c0.39,0,0.78,0.07,1.16,0.19
		c0.93,0.31,1.68,0.96,2.12,1.84C34.18,20.201,34.26,21.201,33.95,22.131z M40.78,59v3.06H21.24V59H40.78z M27.85,57.06v-2.63h6.31
		v2.63H27.85z M15.15,52.49c-0.75,0-1.37-0.61-1.37-1.37c0-0.75,0.62-1.37,1.37-1.37h22.61c7.55,0,13.7-6.15,13.7-13.7
		c0-7.56-6.15-13.71-13.7-13.71h-1.88c0.23-0.91,0.24-1.84,0.01-2.74h1.87c9.07,0,16.45,7.38,16.45,16.45
		c0,9.07-7.38,16.44-16.45,16.44H15.15z"></path>
	<polygon fill="#4DBDE5" points="30.55 7.461 29.41 10.891 25.98 9.761 27.11 6.321"></polygon>
	<polygon fill="#FFDC7C" points="33.79 4.721 33.27 6.321 25.61 3.781 26.14 2.191"></polygon>
	<rect width="6.31" height="2.63" x="27.85" y="54.43" fill="#EDC35E"></rect>
	<rect width="19.54" height="3.06" x="21.24" y="59" fill="#F26E61"></rect>
	<polygon fill="#E15E5A" points="40.78 59 40.78 62.06 21.24 62.06 21.24 60.53 39.25 60.53 39.25 59"></polygon>
	<rect width="3.792" height="2.802" x="18.579" y="30.739" fill="#4DBDE5" transform="rotate(-71.712 20.474 32.14)"></rect>
	<path fill="#F26E61" d="M31.32,13.571l-0.6,1.83c-0.95-0.05-1.9,0.13-2.77,0.56c-1.34,0.68-2.34,1.83-2.81,3.25
		c-0.8,2.44,0.16,5.04,2.2,6.41l-1.42,4.28l-1.97-0.65c-0.01-0.01-0.01-0.01-0.02-0.01c-0.01-0.01-0.01,0-0.02-0.01l-4.47-1.47
		c0-0.01,0-0.01-0.01-0.01h-0.01l-1.97-0.66l5.4-16.33l1.58,0.53c0.01,0,0.01,0,0.02,0.01c0,0,0.01,0,0.02,0l5.24,1.73
		c0,0.01,0.01,0.01,0.01,0.01c0.01,0,0.02,0,0.02,0.01L31.32,13.571z"></path>
	<path fill="#E15E5A" d="M24.58,11.341l-5.4,16.33l-1.73-0.58l5.4-16.33l1.58,0.53c0.01,0,0.01,0,0.02,0.01c0,0,0.01,0,0.02,0
		L24.58,11.341z"></path>
	<path fill="#FFDC7C" d="M33.95,22.131c-0.64,1.91-2.72,2.96-4.64,2.33c-1.92-0.64-2.96-2.72-2.33-4.64
		c0.31-0.93,0.96-1.68,1.84-2.12c0.52-0.26,1.08-0.4,1.64-0.4c0.39,0,0.78,0.07,1.16,0.19c0.93,0.31,1.68,0.96,2.12,1.84
		C34.18,20.201,34.26,21.201,33.95,22.131z"></path>
	<path fill="#EDC35E" d="M33.95,22.131c-0.64,1.91-2.72,2.96-4.64,2.33c-0.96-0.32-1.7-1-2.12-1.83c0.28,0.19,0.59,0.35,0.93,0.46
		c1.92,0.63,4-0.42,4.64-2.33c0.31-0.93,0.23-1.93-0.21-2.8c0.5,0.34,0.91,0.81,1.19,1.37C34.18,20.201,34.26,21.201,33.95,22.131z"></path>
	<path fill="#4DBDE5" d="M54.21,36.05c0,9.07-7.38,16.44-16.45,16.44H15.15c-0.75,0-1.37-0.61-1.37-1.37c0-0.75,0.62-1.37,1.37-1.37
		h22.61c7.55,0,13.7-6.15,13.7-13.7c0-7.56-6.15-13.71-13.7-13.71h-1.88c0.23-0.91,0.24-1.84,0.01-2.74h1.87
		C46.83,19.601,54.21,26.98,54.21,36.05z"></path>
</svg>
